<svg width="120" height="120" viewBox="0 0 120 120" fill="none" xmlns="http://www.w3.org/2000/svg">
<path d="M67.5693 95.0522C71.3693 95.0522 72.8193 96.8856 74.3193 97.8022L62.1245 97.8022C61.7026 97.8022 61.4849 97.3241 61.8004 97.0442C62.8322 96.1286 64.6577 95.0522 67.5693 95.0522Z" fill="#E2E8F0"/>
<path d="M74.3193 83.5522L74.3193 97.8022M74.3193 97.8022C72.8193 96.8856 71.3693 95.0522 67.5693 95.0522C64.6577 95.0522 62.8322 96.1286 61.8004 97.0442C61.4849 97.3241 61.7026 97.8022 62.1245 97.8022L74.3193 97.8022Z" stroke="#E2E8F0" stroke-width="2"/>
<path d="M47.0688 95.0522C50.8688 95.0522 52.3188 96.8856 53.8188 97.8022L41.624 97.8022C41.2022 97.8022 40.9844 97.3241 41.2999 97.0442C42.3317 96.1286 44.1572 95.0522 47.0688 95.0522Z" fill="#E2E8F0"/>
<path d="M53.8188 83.5522L53.8188 97.8022M53.8188 97.8022C52.3188 96.8856 50.8688 95.0522 47.0688 95.0522C44.1572 95.0522 42.3317 96.1286 41.2999 97.0442C40.9844 97.3241 41.2022 97.8022 41.624 97.8022L53.8188 97.8022Z" stroke="#E2E8F0" stroke-width="2"/>
<path d="M96.2329 72.1961C90.2184 60.5174 80.0509 41.6017 73.7499 45.584C65.8737 50.5618 85.2062 65.8781 75.898 72.1962C66.5898 78.5142 57.9976 39.8403 49.5485 45.5839C41.0995 51.3276 57.7111 66.4525 51.1238 72.1962C45.8539 76.7911 36.8034 60.6559 29.5 48.2752" stroke="#E2E8F0" stroke-width="24.5454" stroke-linecap="round"/>
<path d="M46 60C46.2297 59.3333 47.3324 58 49.9054 58C52.4784 58 54.0405 59.3333 54.5 60" stroke="white" stroke-width="1.75" stroke-linecap="round"/>
<path d="M61 60C61.2297 59.3333 62.3324 58 64.9054 58C67.4784 58 69.0405 59.3333 69.5 60" stroke="white" stroke-width="1.75" stroke-linecap="round"/>
<path d="M98.4999 41C98.735 38.2241 94.3324 37.598 91.75 37.7499C79.0001 38.5 90.4183 40.0141 98.4999 41Z" fill="#E2E8F0"/>
<path d="M97.8089 51.8313C110.584 50.8096 101.917 42.9871 98.4999 41M98.4999 41C98.735 38.2241 94.3324 37.598 91.75 37.7499C79.0001 38.5 90.4183 40.0141 98.4999 41Z" stroke="#E2E8F0" stroke-width="2"/>
<path d="M88.4155 19.0968C89.4001 16.0699 90.8125 15.3463 92.1255 15.7734C93.4384 16.2005 94.1548 17.6165 93.1702 20.6435C92.1856 23.6705 88.8775 25.7584 88.8775 25.7584C88.8775 25.7584 87.4308 22.1238 88.4155 19.0968Z" fill="#E2E8F0"/>
<path d="M95.9967 24.2051C97.2434 23.0489 98.0906 23.0786 98.5921 23.6194C99.0937 24.1602 99.0596 25.0072 97.8129 26.1634C96.5662 27.3197 94.4796 27.4334 94.4796 27.4334C94.4796 27.4334 94.75 25.3613 95.9967 24.2051Z" fill="#E2E8F0"/>
<path d="M97.9441 28.571C99.199 28.5709 99.6426 29.0122 99.6427 29.5566C99.6427 30.1009 99.1992 30.5422 97.9442 30.5423C96.6892 30.5424 95.5029 29.5568 95.5029 29.5568C95.5029 29.5568 96.6891 28.5711 97.9441 28.571Z" fill="#E2E8F0"/>
<path d="M102.571 25.6831C103.417 25.5165 103.778 25.7764 103.856 26.1696C103.933 26.5628 103.697 26.9405 102.852 27.1071C102.007 27.2737 101.068 26.7192 101.068 26.7192C101.068 26.7192 101.726 25.8497 102.571 25.6831Z" fill="#E2E8F0"/>
<path d="M19.8036 72.127C17.1907 73.0931 14.3742 73.116 12.0505 70.891C7.2422 66.2866 15.2158 69.7965 19.8036 72.127Z" fill="#E2E8F0"/>
<path d="M30.75 65.0002C29.273 66.595 22.5976 71.0939 19.8036 72.127M19.8036 72.127C17.1907 73.0931 14.3742 73.116 12.0505 70.891C7.2422 66.2866 15.2158 69.7965 19.8036 72.127Z" stroke="#E2E8F0" stroke-width="2"/>
</svg>
